solid inlet
 facet normal  0.000000e+00  1.000000e+00  0.000000e+00
   outer loop
     vertex  2.230000e+00  5.490000e+00  2.050000e+00
     vertex  2.230000e+00  5.490000e+00  5.000000e-02
     vertex  1.430000e+00  5.490000e+00  5.000000e-02
   endloop
 endfacet
 facet normal  0.000000e+00  1.000000e+00  0.000000e+00
   outer loop
     vertex  2.230000e+00  5.490000e+00  2.050000e+00
     vertex  1.430000e+00  5.490000e+00  5.000000e-02
     vertex  1.430000e+00  5.490000e+00  2.050000e+00
   endloop
 endfacet
endsolid
solid outlet
 facet normal  0.000000e+00 -1.000000e+00  0.000000e+00
   outer loop
     vertex  1.330000e+00  0.000000e+00  1.600000e+00
     vertex  1.330000e+00  0.000000e+00  8.000000e-01
     vertex  2.330000e+00  0.000000e+00  8.000000e-01
   endloop
 endfacet
 facet normal  0.000000e+00 -1.000000e+00  0.000000e+00
   outer loop
     vertex  1.330000e+00  0.000000e+00  1.600000e+00
     vertex  2.330000e+00  0.000000e+00  8.000000e-01
     vertex  2.330000e+00  0.000000e+00  1.600000e+00
   endloop
 endfacet
endsolid
solid walls
 facet normal  0.000000e+00  0.000000e+00  1.000000e+00
   outer loop
     vertex  3.660000e+00  5.490000e+00  2.400000e+00
     vertex  0.000000e+00  5.490000e+00  2.400000e+00
     vertex  0.000000e+00  0.000000e+00  2.400000e+00
   endloop
 endfacet
 facet normal  0.000000e+00  0.000000e+00  1.000000e+00
   outer loop
     vertex  3.660000e+00  5.490000e+00  2.400000e+00
     vertex  0.000000e+00  0.000000e+00  2.400000e+00
     vertex  3.660000e+00  0.000000e+00  2.400000e+00
   endloop
 endfacet
 facet normal -0.000000e+00 -1.000000e+00  0.000000e+00
   outer loop
     vertex  1.330000e+00  0.000000e+00  1.600000e+00
     vertex  0.000000e+00  0.000000e+00  2.400000e+00
     vertex  0.000000e+00  0.000000e+00  0.000000e+00
   endloop
 endfacet
 facet normal  0.000000e+00 -1.000000e+00 -0.000000e+00
   outer loop
     vertex  1.330000e+00  0.000000e+00  1.600000e+00
     vertex  0.000000e+00  0.000000e+00  0.000000e+00
     vertex  1.330000e+00  0.000000e+00  8.000000e-01
   endloop
 endfacet
 facet normal  0.000000e+00 -1.000000e+00  0.000000e+00
   outer loop
     vertex  3.660000e+00  0.000000e+00  0.000000e+00
     vertex  2.330000e+00  0.000000e+00  8.000000e-01
     vertex  1.330000e+00  0.000000e+00  8.000000e-01
   endloop
 endfacet
 facet normal  0.000000e+00 -1.000000e+00  0.000000e+00
   outer loop
     vertex  3.660000e+00  0.000000e+00  0.000000e+00
     vertex  1.330000e+00  0.000000e+00  8.000000e-01
     vertex  0.000000e+00  0.000000e+00  0.000000e+00
   endloop
 endfacet
 facet normal  0.000000e+00 -1.000000e+00  0.000000e+00
   outer loop
     vertex  2.330000e+00  0.000000e+00  1.600000e+00
     vertex  0.000000e+00  0.000000e+00  2.400000e+00
     vertex  1.330000e+00  0.000000e+00  1.600000e+00
   endloop
 endfacet
 facet normal  0.000000e+00 -1.000000e+00  0.000000e+00
   outer loop
     vertex  3.660000e+00  0.000000e+00  2.400000e+00
     vertex  2.330000e+00  0.000000e+00  1.600000e+00
     vertex  2.330000e+00  0.000000e+00  8.000000e-01
   endloop
 endfacet
 facet normal -0.000000e+00 -1.000000e+00  0.000000e+00
   outer loop
     vertex  3.660000e+00  0.000000e+00  2.400000e+00
     vertex  0.000000e+00  0.000000e+00  2.400000e+00
     vertex  2.330000e+00  0.000000e+00  1.600000e+00
   endloop
 endfacet
 facet normal  0.000000e+00 -1.000000e+00 -0.000000e+00
   outer loop
     vertex  3.660000e+00  0.000000e+00  2.400000e+00
     vertex  2.330000e+00  0.000000e+00  8.000000e-01
     vertex  3.660000e+00  0.000000e+00  0.000000e+00
   endloop
 endfacet
 facet normal -1.000000e+00  0.000000e+00  0.000000e+00
   outer loop
     vertex  0.000000e+00  0.000000e+00  2.400000e+00
     vertex  0.000000e+00  5.490000e+00  0.000000e+00
     vertex  0.000000e+00  0.000000e+00  0.000000e+00
   endloop
 endfacet
 facet normal -1.000000e+00  0.000000e+00  0.000000e+00
   outer loop
     vertex  0.000000e+00  0.000000e+00  2.400000e+00
     vertex  0.000000e+00  5.490000e+00  2.400000e+00
     vertex  0.000000e+00  5.490000e+00  0.000000e+00
   endloop
 endfacet
 facet normal  1.000000e+00  0.000000e+00  0.000000e+00
   outer loop
     vertex  3.660000e+00  0.000000e+00  2.400000e+00
     vertex  3.660000e+00  0.000000e+00  0.000000e+00
     vertex  3.660000e+00  5.490000e+00  0.000000e+00
   endloop
 endfacet
 facet normal  1.000000e+00 -0.000000e+00  0.000000e+00
   outer loop
     vertex  3.660000e+00  0.000000e+00  2.400000e+00
     vertex  3.660000e+00  5.490000e+00  0.000000e+00
     vertex  3.660000e+00  5.490000e+00  2.400000e+00
   endloop
 endfacet
 facet normal  0.000000e+00  1.000000e+00  0.000000e+00
   outer loop
     vertex  1.430000e+00  5.490000e+00  2.050000e+00
     vertex  0.000000e+00  5.490000e+00  0.000000e+00
     vertex  0.000000e+00  5.490000e+00  2.400000e+00
   endloop
 endfacet
 facet normal  0.000000e+00  1.000000e+00  0.000000e+00
   outer loop
     vertex  1.430000e+00  5.490000e+00  2.050000e+00
     vertex  1.430000e+00  5.490000e+00  5.000000e-02
     vertex  0.000000e+00  5.490000e+00  0.000000e+00
   endloop
 endfacet
 facet normal  0.000000e+00  1.000000e+00  0.000000e+00
   outer loop
     vertex  2.230000e+00  5.490000e+00  2.050000e+00
     vertex  3.660000e+00  5.490000e+00  0.000000e+00
     vertex  2.230000e+00  5.490000e+00  5.000000e-02
   endloop
 endfacet
 facet normal  0.000000e+00  1.000000e+00  0.000000e+00
   outer loop
     vertex  3.660000e+00  5.490000e+00  2.400000e+00
     vertex  3.660000e+00  5.490000e+00  0.000000e+00
     vertex  2.230000e+00  5.490000e+00  2.050000e+00
   endloop
 endfacet
 facet normal  0.000000e+00  1.000000e+00  0.000000e+00
   outer loop
     vertex  3.660000e+00  5.490000e+00  0.000000e+00
     vertex  0.000000e+00  5.490000e+00  0.000000e+00
     vertex  1.430000e+00  5.490000e+00  5.000000e-02
   endloop
 endfacet
 facet normal  0.000000e+00  1.000000e+00  0.000000e+00
   outer loop
     vertex  3.660000e+00  5.490000e+00  0.000000e+00
     vertex  1.430000e+00  5.490000e+00  5.000000e-02
     vertex  2.230000e+00  5.490000e+00  5.000000e-02
   endloop
 endfacet
 facet normal -0.000000e+00  1.000000e+00  0.000000e+00
   outer loop
     vertex  0.000000e+00  5.490000e+00  2.400000e+00
     vertex  3.660000e+00  5.490000e+00  2.400000e+00
     vertex  2.230000e+00  5.490000e+00  2.050000e+00
   endloop
 endfacet
 facet normal  0.000000e+00  1.000000e+00  0.000000e+00
   outer loop
     vertex  0.000000e+00  5.490000e+00  2.400000e+00
     vertex  2.230000e+00  5.490000e+00  2.050000e+00
     vertex  1.430000e+00  5.490000e+00  2.050000e+00
   endloop
 endfacet
 facet normal -0.000000e+00  0.000000e+00 -1.000000e+00
   outer loop
     vertex  3.660000e+00  5.490000e+00  0.000000e+00
     vertex  0.000000e+00  0.000000e+00  0.000000e+00
     vertex  0.000000e+00  5.490000e+00  0.000000e+00
   endloop
 endfacet
 facet normal  0.000000e+00 -0.000000e+00 -1.000000e+00
   outer loop
     vertex  3.660000e+00  5.490000e+00  0.000000e+00
     vertex  3.660000e+00  0.000000e+00  0.000000e+00
     vertex  0.000000e+00  0.000000e+00  0.000000e+00
   endloop
 endfacet
endsolid
solid table
 facet normal  0.000000e+00  1.000000e+00  0.000000e+00
   outer loop
     vertex  2.430000e+00  3.495000e+00  7.600000e-01
     vertex  2.430000e+00  3.495000e+00  6.000000e-02
     vertex  2.330000e+00  3.495000e+00  6.000000e-02
   endloop
 endfacet
 facet normal  0.000000e+00  1.000000e+00  0.000000e+00
   outer loop
     vertex  2.430000e+00  3.495000e+00  7.600000e-01
     vertex  2.330000e+00  3.495000e+00  6.000000e-02
     vertex  2.330000e+00  3.495000e+00  7.600000e-01
   endloop
 endfacet
 facet normal  0.000000e+00  0.000000e+00  1.000000e+00
   outer loop
     vertex  2.330000e+00  2.095000e+00  7.600000e-01
     vertex  1.430000e+00  2.095000e+00  7.600000e-01
     vertex  1.430000e+00  1.995000e+00  7.600000e-01
   endloop
 endfacet
 facet normal  0.000000e+00  0.000000e+00  1.000000e+00
   outer loop
     vertex  2.330000e+00  2.095000e+00  7.600000e-01
     vertex  1.430000e+00  1.995000e+00  7.600000e-01
     vertex  2.330000e+00  1.995000e+00  7.600000e-01
   endloop
 endfacet
 facet normal  0.000000e+00  0.000000e+00  1.000000e+00
   outer loop
     vertex  1.430000e+00  3.495000e+00  7.600000e-01
     vertex  1.330000e+00  3.495000e+00  7.600000e-01
     vertex  1.330000e+00  2.095000e+00  7.600000e-01
   endloop
 endfacet
 facet normal  0.000000e+00  0.000000e+00  1.000000e+00
   outer loop
     vertex  1.430000e+00  3.495000e+00  7.600000e-01
     vertex  1.330000e+00  2.095000e+00  7.600000e-01
     vertex  1.430000e+00  2.095000e+00  7.600000e-01
   endloop
 endfacet
 facet normal  0.000000e+00  0.000000e+00  1.000000e+00
   outer loop
     vertex  2.330000e+00  3.495000e+00  7.600000e-01
     vertex  1.430000e+00  3.495000e+00  7.600000e-01
     vertex  1.430000e+00  2.095000e+00  7.600000e-01
   endloop
 endfacet
 facet normal  0.000000e+00  0.000000e+00  1.000000e+00
   outer loop
     vertex  2.330000e+00  3.495000e+00  7.600000e-01
     vertex  1.430000e+00  2.095000e+00  7.600000e-01
     vertex  2.330000e+00  2.095000e+00  7.600000e-01
   endloop
 endfacet
 facet normal  0.000000e+00  0.000000e+00  1.000000e+00
   outer loop
     vertex  2.430000e+00  3.495000e+00  7.600000e-01
     vertex  2.330000e+00  2.095000e+00  7.600000e-01
     vertex  2.430000e+00  2.095000e+00  7.600000e-01
   endloop
 endfacet
 facet normal  0.000000e+00  0.000000e+00  1.000000e+00
   outer loop
     vertex  2.430000e+00  3.495000e+00  7.600000e-01
     vertex  2.330000e+00  3.495000e+00  7.600000e-01
     vertex  2.330000e+00  2.095000e+00  7.600000e-01
   endloop
 endfacet
 facet normal  0.000000e+00  0.000000e+00  1.000000e+00
   outer loop
     vertex  2.330000e+00  3.595000e+00  7.600000e-01
     vertex  1.430000e+00  3.595000e+00  7.600000e-01
     vertex  1.430000e+00  3.495000e+00  7.600000e-01
   endloop
 endfacet
 facet normal  0.000000e+00  0.000000e+00  1.000000e+00
   outer loop
     vertex  2.330000e+00  3.595000e+00  7.600000e-01
     vertex  1.430000e+00  3.495000e+00  7.600000e-01
     vertex  2.330000e+00  3.495000e+00  7.600000e-01
   endloop
 endfacet
 facet normal  0.000000e+00 -1.000000e+00 -0.000000e+00
   outer loop
     vertex  2.430000e+00  2.095000e+00  7.600000e-01
     vertex  2.330000e+00  2.095000e+00  6.000000e-02
     vertex  2.430000e+00  2.095000e+00  6.000000e-02
   endloop
 endfacet
 facet normal -0.000000e+00 -1.000000e+00  0.000000e+00
   outer loop
     vertex  2.430000e+00  2.095000e+00  7.600000e-01
     vertex  2.330000e+00  2.095000e+00  7.600000e-01
     vertex  2.330000e+00  2.095000e+00  6.000000e-02
   endloop
 endfacet
 facet normal  0.000000e+00  0.000000e+00  1.000000e+00
   outer loop
     vertex  2.430000e+00  3.595000e+00  6.000000e-02
     vertex  2.330000e+00  3.595000e+00  6.000000e-02
     vertex  2.330000e+00  3.495000e+00  6.000000e-02
   endloop
 endfacet
 facet normal  0.000000e+00  0.000000e+00  1.000000e+00
   outer loop
     vertex  2.430000e+00  3.595000e+00  6.000000e-02
     vertex  2.330000e+00  3.495000e+00  6.000000e-02
     vertex  2.430000e+00  3.495000e+00  6.000000e-02
   endloop
 endfacet
 facet normal  0.000000e+00  1.000000e+00  0.000000e+00
   outer loop
     vertex  1.430000e+00  3.495000e+00  7.600000e-01
     vertex  1.430000e+00  3.495000e+00  6.000000e-02
     vertex  1.330000e+00  3.495000e+00  6.000000e-02
   endloop
 endfacet
 facet normal  0.000000e+00  1.000000e+00  0.000000e+00
   outer loop
     vertex  1.430000e+00  3.495000e+00  7.600000e-01
     vertex  1.330000e+00  3.495000e+00  6.000000e-02
     vertex  1.330000e+00  3.495000e+00  7.600000e-01
   endloop
 endfacet
 facet normal  0.000000e+00  0.000000e+00  1.000000e+00
   outer loop
     vertex  1.430000e+00  3.595000e+00  6.000000e-02
     vertex  1.330000e+00  3.595000e+00  6.000000e-02
     vertex  1.330000e+00  3.495000e+00  6.000000e-02
   endloop
 endfacet
 facet normal  0.000000e+00  0.000000e+00  1.000000e+00
   outer loop
     vertex  1.430000e+00  3.595000e+00  6.000000e-02
     vertex  1.330000e+00  3.495000e+00  6.000000e-02
     vertex  1.430000e+00  3.495000e+00  6.000000e-02
   endloop
 endfacet
 facet normal  0.000000e+00 -1.000000e+00 -0.000000e+00
   outer loop
     vertex  1.430000e+00  3.595000e+00  7.600000e-01
     vertex  1.330000e+00  3.595000e+00  6.000000e-02
     vertex  1.430000e+00  3.595000e+00  6.000000e-02
   endloop
 endfacet
 facet normal -0.000000e+00 -1.000000e+00  0.000000e+00
   outer loop
     vertex  1.430000e+00  3.595000e+00  7.600000e-01
     vertex  1.330000e+00  3.595000e+00  8.600000e-01
     vertex  1.330000e+00  3.595000e+00  6.000000e-02
   endloop
 endfacet
 facet normal  0.000000e+00 -1.000000e+00  0.000000e+00
   outer loop
     vertex  2.330000e+00  3.595000e+00  7.600000e-01
     vertex  2.330000e+00  3.595000e+00  6.000000e-02
     vertex  2.430000e+00  3.595000e+00  6.000000e-02
   endloop
 endfacet
 facet normal  0.000000e+00 -1.000000e+00  0.000000e+00
   outer loop
     vertex  2.430000e+00  3.595000e+00  8.600000e-01
     vertex  1.430000e+00  3.595000e+00  7.600000e-01
     vertex  2.330000e+00  3.595000e+00  7.600000e-01
   endloop
 endfacet
 facet normal -0.000000e+00 -1.000000e+00  0.000000e+00
   outer loop
     vertex  2.430000e+00  3.595000e+00  8.600000e-01
     vertex  1.330000e+00  3.595000e+00  8.600000e-01
     vertex  1.430000e+00  3.595000e+00  7.600000e-01
   endloop
 endfacet
 facet normal  0.000000e+00 -1.000000e+00 -0.000000e+00
   outer loop
     vertex  2.430000e+00  3.595000e+00  8.600000e-01
     vertex  2.330000e+00  3.595000e+00  7.600000e-01
     vertex  2.430000e+00  3.595000e+00  6.000000e-02
   endloop
 endfacet
 facet normal -1.000000e+00  0.000000e+00  0.000000e+00
   outer loop
     vertex  1.430000e+00  1.995000e+00  7.600000e-01
     vertex  1.430000e+00  2.095000e+00  6.000000e-02
     vertex  1.430000e+00  1.995000e+00  6.000000e-02
   endloop
 endfacet
 facet normal -1.000000e+00  0.000000e+00  0.000000e+00
   outer loop
     vertex  1.430000e+00  1.995000e+00  7.600000e-01
     vertex  1.430000e+00  2.095000e+00  7.600000e-01
     vertex  1.430000e+00  2.095000e+00  6.000000e-02
   endloop
 endfacet
 facet normal -0.000000e+00  0.000000e+00 -1.000000e+00
   outer loop
     vertex  2.430000e+00  3.595000e+00  8.600000e-01
     vertex  1.330000e+00  1.995000e+00  8.600000e-01
     vertex  1.330000e+00  3.595000e+00  8.600000e-01
   endloop
 endfacet
 facet normal  0.000000e+00 -0.000000e+00 -1.000000e+00
   outer loop
     vertex  2.430000e+00  3.595000e+00  8.600000e-01
     vertex  2.430000e+00  1.995000e+00  8.600000e-01
     vertex  1.330000e+00  1.995000e+00  8.600000e-01
   endloop
 endfacet
 facet normal -1.000000e+00  0.000000e+00  0.000000e+00
   outer loop
     vertex  2.430000e+00  3.495000e+00  7.600000e-01
     vertex  2.430000e+00  3.595000e+00  6.000000e-02
     vertex  2.430000e+00  3.495000e+00  6.000000e-02
   endloop
 endfacet
 facet normal -1.000000e+00  0.000000e+00  0.000000e+00
   outer loop
     vertex  2.430000e+00  3.495000e+00  7.600000e-01
     vertex  2.430000e+00  3.595000e+00  8.600000e-01
     vertex  2.430000e+00  3.595000e+00  6.000000e-02
   endloop
 endfacet
 facet normal -1.000000e+00  0.000000e+00 -0.000000e+00
   outer loop
     vertex  2.430000e+00  2.095000e+00  7.600000e-01
     vertex  2.430000e+00  2.095000e+00  6.000000e-02
     vertex  2.430000e+00  1.995000e+00  6.000000e-02
   endloop
 endfacet
 facet normal -1.000000e+00  0.000000e+00  0.000000e+00
   outer loop
     vertex  2.430000e+00  1.995000e+00  8.600000e-01
     vertex  2.430000e+00  3.495000e+00  7.600000e-01
     vertex  2.430000e+00  2.095000e+00  7.600000e-01
   endloop
 endfacet
 facet normal -1.000000e+00  0.000000e+00  0.000000e+00
   outer loop
     vertex  2.430000e+00  1.995000e+00  8.600000e-01
     vertex  2.430000e+00  2.095000e+00  7.600000e-01
     vertex  2.430000e+00  1.995000e+00  6.000000e-02
   endloop
 endfacet
 facet normal -1.000000e+00  0.000000e+00  0.000000e+00
   outer loop
     vertex  2.430000e+00  1.995000e+00  8.600000e-01
     vertex  2.430000e+00  3.595000e+00  8.600000e-01
     vertex  2.430000e+00  3.495000e+00  7.600000e-01
   endloop
 endfacet
 facet normal  1.000000e+00  0.000000e+00  0.000000e+00
   outer loop
     vertex  1.330000e+00  3.495000e+00  7.600000e-01
     vertex  1.330000e+00  3.495000e+00  6.000000e-02
     vertex  1.330000e+00  3.595000e+00  6.000000e-02
   endloop
 endfacet
 facet normal  1.000000e+00 -0.000000e+00  0.000000e+00
   outer loop
     vertex  1.330000e+00  3.495000e+00  7.600000e-01
     vertex  1.330000e+00  3.595000e+00  6.000000e-02
     vertex  1.330000e+00  3.595000e+00  8.600000e-01
   endloop
 endfacet
 facet normal  1.000000e+00  0.000000e+00  0.000000e+00
   outer loop
     vertex  1.330000e+00  2.095000e+00  7.600000e-01
     vertex  1.330000e+00  1.995000e+00  6.000000e-02
     vertex  1.330000e+00  2.095000e+00  6.000000e-02
   endloop
 endfacet
 facet normal  1.000000e+00  0.000000e+00  0.000000e+00
   outer loop
     vertex  1.330000e+00  1.995000e+00  8.600000e-01
     vertex  1.330000e+00  2.095000e+00  7.600000e-01
     vertex  1.330000e+00  3.495000e+00  7.600000e-01
   endloop
 endfacet
 facet normal  1.000000e+00  0.000000e+00  0.000000e+00
   outer loop
     vertex  1.330000e+00  1.995000e+00  8.600000e-01
     vertex  1.330000e+00  1.995000e+00  6.000000e-02
     vertex  1.330000e+00  2.095000e+00  7.600000e-01
   endloop
 endfacet
 facet normal  1.000000e+00 -0.000000e+00  0.000000e+00
   outer loop
     vertex  1.330000e+00  1.995000e+00  8.600000e-01
     vertex  1.330000e+00  3.495000e+00  7.600000e-01
     vertex  1.330000e+00  3.595000e+00  8.600000e-01
   endloop
 endfacet
 facet normal  1.000000e+00  0.000000e+00  0.000000e+00
   outer loop
     vertex  2.330000e+00  1.995000e+00  7.600000e-01
     vertex  2.330000e+00  1.995000e+00  6.000000e-02
     vertex  2.330000e+00  2.095000e+00  6.000000e-02
   endloop
 endfacet
 facet normal  1.000000e+00 -0.000000e+00  0.000000e+00
   outer loop
     vertex  2.330000e+00  1.995000e+00  7.600000e-01
     vertex  2.330000e+00  2.095000e+00  6.000000e-02
     vertex  2.330000e+00  2.095000e+00  7.600000e-01
   endloop
 endfacet
 facet normal  0.000000e+00  1.000000e+00  0.000000e+00
   outer loop
     vertex  1.430000e+00  1.995000e+00  7.600000e-01
     vertex  1.430000e+00  1.995000e+00  6.000000e-02
     vertex  1.330000e+00  1.995000e+00  6.000000e-02
   endloop
 endfacet
 facet normal  0.000000e+00  1.000000e+00  0.000000e+00
   outer loop
     vertex  1.430000e+00  1.995000e+00  7.600000e-01
     vertex  1.330000e+00  1.995000e+00  6.000000e-02
     vertex  1.330000e+00  1.995000e+00  8.600000e-01
   endloop
 endfacet
 facet normal  0.000000e+00  1.000000e+00  0.000000e+00
   outer loop
     vertex  2.330000e+00  1.995000e+00  7.600000e-01
     vertex  2.430000e+00  1.995000e+00  6.000000e-02
     vertex  2.330000e+00  1.995000e+00  6.000000e-02
   endloop
 endfacet
 facet normal  0.000000e+00  1.000000e+00  0.000000e+00
   outer loop
     vertex  2.430000e+00  1.995000e+00  8.600000e-01
     vertex  2.330000e+00  1.995000e+00  7.600000e-01
     vertex  1.430000e+00  1.995000e+00  7.600000e-01
   endloop
 endfacet
 facet normal  0.000000e+00  1.000000e+00  0.000000e+00
   outer loop
     vertex  2.430000e+00  1.995000e+00  8.600000e-01
     vertex  1.430000e+00  1.995000e+00  7.600000e-01
     vertex  1.330000e+00  1.995000e+00  8.600000e-01
   endloop
 endfacet
 facet normal  0.000000e+00  1.000000e+00  0.000000e+00
   outer loop
     vertex  2.430000e+00  1.995000e+00  8.600000e-01
     vertex  2.430000e+00  1.995000e+00  6.000000e-02
     vertex  2.330000e+00  1.995000e+00  7.600000e-01
   endloop
 endfacet
 facet normal -1.000000e+00  0.000000e+00  0.000000e+00
   outer loop
     vertex  1.430000e+00  3.495000e+00  7.600000e-01
     vertex  1.430000e+00  3.595000e+00  6.000000e-02
     vertex  1.430000e+00  3.495000e+00  6.000000e-02
   endloop
 endfacet
 facet normal -1.000000e+00  0.000000e+00  0.000000e+00
   outer loop
     vertex  1.430000e+00  3.495000e+00  7.600000e-01
     vertex  1.430000e+00  3.595000e+00  7.600000e-01
     vertex  1.430000e+00  3.595000e+00  6.000000e-02
   endloop
 endfacet
 facet normal  0.000000e+00  0.000000e+00  1.000000e+00
   outer loop
     vertex  2.430000e+00  2.095000e+00  6.000000e-02
     vertex  2.330000e+00  2.095000e+00  6.000000e-02
     vertex  2.330000e+00  1.995000e+00  6.000000e-02
   endloop
 endfacet
 facet normal  0.000000e+00  0.000000e+00  1.000000e+00
   outer loop
     vertex  2.430000e+00  2.095000e+00  6.000000e-02
     vertex  2.330000e+00  1.995000e+00  6.000000e-02
     vertex  2.430000e+00  1.995000e+00  6.000000e-02
   endloop
 endfacet
 facet normal  1.000000e+00  0.000000e+00  0.000000e+00
   outer loop
     vertex  2.330000e+00  3.495000e+00  7.600000e-01
     vertex  2.330000e+00  3.495000e+00  6.000000e-02
     vertex  2.330000e+00  3.595000e+00  6.000000e-02
   endloop
 endfacet
 facet normal  1.000000e+00 -0.000000e+00  0.000000e+00
   outer loop
     vertex  2.330000e+00  3.495000e+00  7.600000e-01
     vertex  2.330000e+00  3.595000e+00  6.000000e-02
     vertex  2.330000e+00  3.595000e+00  7.600000e-01
   endloop
 endfacet
 facet normal  0.000000e+00 -1.000000e+00 -0.000000e+00
   outer loop
     vertex  1.430000e+00  2.095000e+00  7.600000e-01
     vertex  1.330000e+00  2.095000e+00  6.000000e-02
     vertex  1.430000e+00  2.095000e+00  6.000000e-02
   endloop
 endfacet
 facet normal -0.000000e+00 -1.000000e+00  0.000000e+00
   outer loop
     vertex  1.430000e+00  2.095000e+00  7.600000e-01
     vertex  1.330000e+00  2.095000e+00  7.600000e-01
     vertex  1.330000e+00  2.095000e+00  6.000000e-02
   endloop
 endfacet
 facet normal  0.000000e+00  0.000000e+00  1.000000e+00
   outer loop
     vertex  1.430000e+00  2.095000e+00  6.000000e-02
     vertex  1.330000e+00  2.095000e+00  6.000000e-02
     vertex  1.330000e+00  1.995000e+00  6.000000e-02
   endloop
 endfacet
 facet normal  0.000000e+00  0.000000e+00  1.000000e+00
   outer loop
     vertex  1.430000e+00  2.095000e+00  6.000000e-02
     vertex  1.330000e+00  1.995000e+00  6.000000e-02
     vertex  1.430000e+00  1.995000e+00  6.000000e-02
   endloop
 endfacet
endsolid
